#!OML:ASF E:\CV Data\Top Level 1\Subject 1\Session 1\player.ASF
:FULLY-SPECIFIED
:DEGREES
603
root -0.629501 16.5988 5.93333 -181.256 -154.178 177.82
lowerback 10.7536 -0.708697 -2.27014
upperback -0.577176 -0.989426 3.95423
thorax -6.55017 -0.340633 5.63997
lowerneck -20.2665 -1.20061 -7.06392
upperneck 21.0333 -1.16998 6.77258
head 10.1343 -0.310528 3.41501
rclavicle 3.77442e-014 -1.59028e-015
rhumerus 322.49 41.4013 263.908
rradius 88.1133
rwrist -11.4998
rhand -24.077 14.7472
rfingers 7.12502
rthumb 2.40298 -15.2191
lclavicle 3.77442e-014 -1.59028e-015
lhumerus -34.5964 -36.6389 109.719
lradius 84.8884
lwrist 27.9666
lhand -20.5031 30.2429
lfingers 7.12502
lthumb 5.85411 60.1421
rfemur -29.4382 12.8809 7.81573
rtibia 45.7292
rfoot -14.6286 2.87928
rtoes -9.16522
lfemur 4.64504 -6.18983 -14.6849
ltibia 40.8101
lfoot -21.6424 -18.3369
ltoes -10.0029
604
root -0.535754 16.5926 5.84881 -181.187 -153.619 178.017
lowerback 10.8029 -0.689275 -2.58453
upperback -0.556763 -1.00685 3.92012
thorax -6.55018 -0.33913 5.78792
lowerneck -20.3386 -1.05883 -6.94369
upperneck 21.0379 -1.00472 6.76927
head 10.1351 -0.223976 3.41802
rclavicle -3.16565e-014 -3.18055e-014
rhumerus 322.525 41.2359 264.109
rradius 88.3512
rwrist -11.2699
rhand -24.2954 14.9717
rfingers 7.12502
rthumb 2.19203 -14.9968
lclavicle -3.16565e-014 -3.18055e-014
lhumerus -34.2904 -37.0241 109.701
lradius 84.8382
lwrist 28.3425
lhand -20.6469 30.4189
lfingers 7.12502
lthumb 5.71523 60.3218
rfemur -30.1428 13.1872 7.31565
rtibia 45.4525
rfoot -13.9342 3.11451
rtoes -8.94006
lfemur 4.76537 -5.80889 -15.361
ltibia 40.102
lfoot -22.8423 -16.1672
ltoes -10.5178
605
root -0.44018 16.5895 5.76411 -181.1 -153.053 178.229
lowerback 10.8329 -0.669858 -2.89902
upperback -0.53837 -1.02495 3.87523
thorax -6.54136 -0.338377 5.92392
lowerneck -20.3854 -0.921163 -6.85266
upperneck 21.0158 -0.841914 6.78682
head 10.1223 -0.138611 3.43217
rclavicle -8.12532e-015 1.59028e-015
rhumerus 322.56 41.0738 264.257
rradius 88.5532
rwrist -10.9751
rhand -24.4695 15.2017
rfingers 7.12502
rthumb 2.02394 -14.7684
lclavicle -8.12532e-015 1.59028e-015
lhumerus -34.0133 -37.35 109.667
lradius 84.7954
lwrist 28.6926
lhand -20.7674 30.5756
lfingers 7.12502
lthumb 5.59894 60.4816
rfemur -30.8604 13.4428 6.79954
rtibia 45.1211
rfoot -13.1688 3.38229
rtoes -8.57906
lfemur 4.83552 -5.52658 -16.0611
ltibia 39.3849
lfoot -23.8559 -13.9968
ltoes -11.1722
606
root -0.343141 16.5896 5.67914 -180.991 -152.483 178.437
lowerback 10.8491 -0.649195 -3.20009
upperback -0.520216 -1.04008 3.82198
thorax -6.52551 -0.337031 6.04232
lowerneck -20.4307 -0.787521 -6.76857
upperneck 20.9742 -0.683454 6.8107
head 10.1027 -0.0548992 3.44858
rclavicle 3.17559e-014 5.56597e-015
rhumerus 322.597 40.9065 264.357
rradius 88.7161
rwrist -10.5978
rhand -24.6114 15.4384
rfingers 7.12502
rthumb 1.8869 -14.533
lclavicle 3.17559e-014 5.56597e-015
lhumerus -33.7725 -37.6263 109.619
lradius 84.7658
lwrist 29.0305
lhand -20.8646 30.7174
lfingers 7.12502
lthumb 5.50512 60.6259
rfemur -31.587 13.6413 6.29079
rtibia 44.7379
rfoot -12.325 3.67746
rtoes -8.06833
lfemur 4.83849 -5.34478 -16.7627
ltibia 38.6707
lfoot -24.6537 -11.9411
ltoes -11.6784
607
root -0.244995 16.5928 5.59367 -180.848 -151.906 178.619
lowerback 10.8566 -0.630184 -3.47454
upperback -0.507553 -1.05354 3.7726
thorax -6.51109 -0.33564 6.14923
lowerneck -20.4691 -0.652476 -6.6932
upperneck 20.9192 -0.519606 6.83226
head 10.0768 0.0303333 3.46589
rclavicle 1.87106e-014 3.10104e-014
rhumerus 322.619 40.7465 264.404
rradius 88.8457
rwrist -10.1412
rhand -24.7273 15.6855
rfingers 7.12502
rthumb 1.77497 -14.2869
lclavicle 1.87106e-014 3.10104e-014
lhumerus -33.5759 -37.8292 109.563
lradius 84.7567
lwrist 29.3769
lhand -20.9514 30.8541
lfingers 7.12502
lthumb 5.4213 60.7647
rfemur -32.3275 13.7785 5.82229
rtibia 44.3094
rfoot -11.3935 3.99248
rtoes -7.43645
lfemur 4.7665 -5.21702 -17.417
ltibia 37.974
lfoot -25.2702 -10.0667
ltoes -12.0117
608
root -0.146076 16.5983 5.50878 -180.675 -151.315 178.756
lowerback 10.8569 -0.613068 -3.70559
upperback -0.495092 -1.06326 3.73197
thorax -6.49384 -0.333934 6.23977
lowerneck -20.5033 -0.514651 -6.62439
upperneck 20.8523 -0.347611 6.84589
head 10.0453 0.117908 3.48213
rclavicle -2.49972e-014 -2.70347e-014
rhumerus 322.622 40.5997 264.402
rradius 88.9435
rwrist -9.59822
rhand -24.8117 15.9239
rfingers 7.12502
rthumb 1.69346 -14.0491
lclavicle -2.49972e-014 -2.70347e-014
lhumerus -33.429 -37.9451 109.508
lradius 84.7738
lwrist 29.7279
lhand -21.0544 30.9936
lfingers 7.12502
lthumb 5.32185 60.9067
rfemur -33.0676 13.8513 5.41942
rtibia 43.8438
rfoot -10.3742 4.32755
rtoes -6.64036
lfemur 4.63581 -5.09969 -17.9953
ltibia 37.3058
lfoot -25.7454 -8.40163
ltoes -12.1592
609
root -0.0471269 16.6058 5.42406 -180.468 -150.713 178.838
lowerback 10.8561 -0.597794 -3.89788
upperback -0.484947 -1.06943 3.70722
thorax -6.47917 -0.331484 6.32465
lowerneck -20.5361 -0.371343 -6.55694
upperneck 20.7807 -0.163616 6.84409
head 10.0111 0.209122 3.49448
rclavicle 4.36829e-014 1.03368e-014
rhumerus 322.601 40.4718 264.353
rradius 89.0218
rwrist -8.99139
rhand -24.8455 16.1253
rfingers 7.12502
rthumb 1.66082 -13.8479
lclavicle 4.36829e-014 1.03368e-014
lhumerus -33.338 -37.9488 109.466
lradius 84.819
lwrist 30.0616
lhand -21.1888 31.1314
lfingers 7.12502
lthumb 5.19201 61.0478
rfemur -33.807 13.854 5.10489
rtibia 43.3512
rfoot -9.26932 4.66485
rtoes -5.6571
lfemur 4.43801 -4.94713 -18.4638
ltibia 36.6805
lfoot -26.1123 -6.99917
ltoes -12.082
610
root 0.0512989 16.6149 5.33999 -180.232 -150.1 178.863
lowerback 10.8582 -0.58125 -4.05078
upperback -0.47601 -1.068 3.69705
thorax -6.46888 -0.326292 6.40155
lowerneck -20.5841 -0.22265 -6.48184
upperneck 20.716 0.0293187 6.82889
head 9.98161 0.303686 3.5023
rclavicle 2.5345e-014 1.59028e-015
rhumerus 322.548 40.3541 264.259
rradius 89.095
rwrist -8.34791
rhand -24.8029 16.2767
rfingers 7.12502
rthumb 1.70191 -13.6963
lclavicle 2.5345e-014 1.59028e-015
lhumerus -33.3107 -37.8683 109.447
lradius 84.9006
lwrist 30.3857
lhand -21.3863 31.2775
lfingers 7.12502
lthumb 5.00134 61.1984
rfemur -34.5333 13.7784 4.89335
rtibia 42.8435
rfoot -8.10204 4.98468
rtoes -4.3908
lfemur 4.18089 -4.7307 -18.8137
ltibia 36.1074
lfoot -26.408 -5.85187
ltoes -11.8735
